<svg width="25" height="26" viewBox="0 0 25 26" fill="none" xmlns="http://www.w3.org/2000/svg">
<g clip-path="url(#clip0_220_1122)">
<path d="M24.4246 10.4365C24.4251 10.109 24.3389 9.78716 24.1747 9.50379C24.0105 9.22042 23.7742 8.98558 23.4898 8.82316L13.3275 2.79217C13.0347 2.62129 12.7017 2.53125 12.3626 2.53125C12.0235 2.53125 11.6905 2.62129 11.3976 2.79217L1.22031 8.82316C0.939068 8.99004 0.706091 9.22722 0.544272 9.5114C0.382454 9.79558 0.297363 10.117 0.297363 10.444C0.297363 10.771 0.382454 11.0924 0.544272 11.3766C0.706091 11.6608 0.939068 11.8979 1.22031 12.0648L4.11518 13.7535V17.9903C4.11693 18.3214 4.20383 18.6465 4.36755 18.9343C4.53126 19.2221 4.76628 19.463 5.04999 19.6337L11.4579 23.3277C11.744 23.4861 12.0657 23.5692 12.3927 23.5692C12.7198 23.5692 13.0414 23.4861 13.3275 23.3277L19.7355 19.6337C20.0192 19.463 20.2542 19.2221 20.4179 18.9343C20.5816 18.6465 20.6685 18.3214 20.6703 17.9903V13.7083L22.5399 12.6076V16.7087H24.4246V10.4365ZM18.8007 17.9752L12.3626 21.6843L5.99987 17.9903V14.8692L11.3976 18.0807C11.6915 18.2487 12.0241 18.337 12.3626 18.337C12.701 18.337 13.0337 18.2487 13.3275 18.0807L18.7856 14.824L18.8007 17.9752ZM12.3626 16.4524L2.18527 10.4214L12.3626 4.3753L22.5399 10.4063L12.3626 16.4524Z" fill="black"/>
</g>
<defs>
<clipPath id="clip0_220_1122">
<rect width="24.124" height="24.124" fill="white" transform="translate(0.300781 0.967285)"/>
</clipPath>
</defs>
</svg>
